# xmcd CD database file
#
# Track frame offsets:
#	150
#	18685
#	32049
#	43335
#	61700
#	84711
#	108390
#	132188
#	147029
#	169687
#	182022
#	195019
#
# Disc length: 2723 seconds
#
# Revision: 0
# Processed by: cddbd v1.5.2PL0 Copyright (c) Steve Scherf et al.
# Submitted via: CDex 1.70beta2
#
DISCID=9a0aa10c
DTITLE=Tania Margarit - Elea
DYEAR=2008
DGENRE=Jazz
TTITLE0=Moody Reggae
TTITLE1=A grey day
TTITLE2=Blues for Aaron
TTITLE3=Roses in Rodhes (Next Time)
TTITLE4=Charly's house
TTITLE5=The day she left (I wasn't there)
TTITLE6=David's funk
TTITLE7=My head in the clouds
TTITLE8=The Deb's sesion
TTITLE9=Tribute to Michel Petrucciani
TTITLE10=Candles in beads (For her birthday)
TTITLE11=We're waiting for you, Maelys
EXTD=YEAR: 2008
EXTT0=
EXTT1=
EXTT2=
EXTT3=
EXTT4=
EXTT5=
EXTT6=
EXTT7=
EXTT8=
EXTT9=
EXTT10=
EXTT11=
PLAYORDER=
